<svg width="90" height="72" viewBox="0 0 90 72" fill="none" xmlns="http://www.w3.org/2000/svg">
<path d="M0.6 66.9L2.8 66.4C5.06667 65.8 6.56667 64.9667 7.3 63.9C8.1 62.7667 8.5 60.8 8.5 58V13.2C8.5 12.4 8.33333 11.8667 8 11.6C7.66667 11.2667 7.16667 11.1 6.5 11.1H1.3L0.2 7.7C2.8 6.7 6.23333 5.8 10.5 5C14.7667 4.13333 18.8667 3.7 22.8 3.7C31.6667 3.7 38.2667 5.7 42.6 9.7C46.9333 13.7 49.1 18.8667 49.1 25.2C49.1 29.1333 48.3 32.7 46.7 35.9C45.1667 39.1 42.7667 41.6667 39.5 43.6C36.3 45.4667 32.3 46.4 27.5 46.4C25.3667 46.4 23.5 46.1333 21.9 45.6C20.3 45 19.5 44.2 19.5 43.2C19.5 42.6 19.6 42.1 19.8 41.7C20.0667 41.2333 20.4333 41 20.9 41C21.1 41 21.6 41.1333 22.4 41.4C23.2 41.6 24.1667 41.7 25.3 41.7C29.8333 41.7 33.3667 40.2333 35.9 37.3C38.5 34.3667 39.8 30.4667 39.8 25.6C39.8 20.6667 38.4333 16.6333 35.7 13.5C33.0333 10.3 29.2333 8.7 24.3 8.7C19.7667 8.7 17.5 10.1333 17.5 13V51.8C17.5 55.5333 17.8 58.5 18.4 60.7C19 62.8333 20.0667 64.9 21.6 66.9L22.8 68.5L21.6 70H1.7L0.6 66.9ZM70.6063 17.7C69.4063 16.9667 67.7063 15.2333 65.5063 12.5C63.3063 9.7 61.2729 6.63333 59.4063 3.29999L62.4063 0.699998L71.8063 8.39999L81.4063 0.699998L84.3063 3.29999C82.4396 6.63333 80.3729 9.7 78.1063 12.5C75.9063 15.3 74.2396 17.0333 73.1063 17.7H70.6063ZM71.6063 71.3C67.0729 71.3 63.3063 70.2667 60.3063 68.2C57.3063 66.0667 55.8063 63.3 55.8063 59.9C55.8063 57.9 56.5063 56.2333 57.9063 54.9C59.3729 53.5 61.2063 52.8 63.4062 52.8C63.8729 52.8 64.3063 52.9 64.7063 53.1C65.1063 53.3 65.3063 53.5667 65.3063 53.9C65.3063 54.1 65.1063 54.7 64.7063 55.7C64.3063 56.6333 64.1062 57.7667 64.1062 59.1C64.1062 61.5667 64.9729 63.4667 66.7063 64.8C68.5063 66.1333 70.5063 66.8 72.7063 66.8C75.2396 66.8 77.3063 66.1333 78.9063 64.8C80.5063 63.4667 81.3063 61.7333 81.3063 59.6C81.3063 57.6667 80.4396 56.0667 78.7063 54.8C77.0396 53.5333 74.6063 52.2333 71.4063 50.9C68.4729 49.6333 66.0063 48.4333 64.0063 47.3C62.0729 46.1667 60.4063 44.6667 59.0063 42.8C57.6063 40.9333 56.9063 38.6667 56.9063 36C56.9063 32.4667 58.4729 29.5667 61.6063 27.3C64.7396 25.0333 68.6729 23.9 73.4063 23.9C77.7396 23.9 81.3063 24.7333 84.1063 26.4C86.9063 28 88.3063 30.2333 88.3063 33.1C88.3063 35.4333 87.6063 37.3333 86.2063 38.8C84.8063 40.2667 82.9729 41 80.7063 41C79.3729 41 78.7063 40.5667 78.7063 39.7C78.7063 39.4333 78.9396 38.8333 79.4063 37.9C79.9396 36.9667 80.2063 35.9 80.2063 34.7C80.2063 32.5667 79.4396 30.9667 77.9063 29.9C76.3729 28.7667 74.6396 28.2 72.7063 28.2C70.2396 28.2 68.2729 28.8 66.8063 30C65.4063 31.2 64.7063 32.7667 64.7063 34.7C64.7063 36.9667 65.6396 38.8333 67.5063 40.3C69.3729 41.7 72.0063 43.0333 75.4063 44.3C78.3396 45.5667 80.7729 46.7333 82.7063 47.8C84.6396 48.8667 86.2729 50.2333 87.6063 51.9C88.9396 53.5 89.6063 55.4 89.6063 57.6C89.6063 61.7333 87.9396 65.0667 84.6063 67.6C81.3396 70.0667 77.0063 71.3 71.6063 71.3Z" fill="black"/>
</svg>
